# xmcd
#
# Track frame offsets: 
#        150
#        9578
#        14680
#        17817
#        36072
#        38927
#        39287
#        40123
#        40769
#        45013
#        48941
#        73937
#        77617
#        87147
#        93379
#        93887
#        110044
#        119825
#        126137
#        130162
#        130462
#        136693
#        142478
#        145454
#        147215
#        160104
#        170988
#        172526
#        189705
#        192573
#        198557
#        203954
#        204254
#        207893
#        227439
#        230231
#        234185
#        251775
#        252819
#        257898
#        260878
#        262012
#        270447
#        275842
#        277485
#        299117
#        306553
#        322234
#        325467
#        327945
#        342683
#
# Disc length: 4748 seconds
#
# Revision: 0
# Processed by: cddbd v1.5.2PL0 Copyright (c) Steve Scherf et al.
# Submitted via: ExactAudioCopy v0.95b4
#
DISCID=2b128a33
DTITLE=The Beatles  - AB  Road - Complete Purple Chick Set v1.1 Jan.07
DTITLE=Various Artist - D4  FLAC
DYEAR=1900
DGENRE=
TTITLE0=Dialogue
TTITLE1=Across The Universe 7.90
TTITLE2=Improvisation 7.91
TTITLE3=Across The Universe 7.92
TTITLE4=A Case Of The Blues 7.93
TTITLE5=Cuddle Up 7.94
TTITLE6=Give Me Some Truth 7.95
TTITLE7=Across The Universe 7.96
TTITLE8=Give Me Some Truth 7.97
TTITLE9=From Me To You 7.98
TTITLE10=Across The Universe 7.99
TTITLE11=Across The Universe 7.100
TTITLE12=Rock And Roll Music 7.101
TTITLE13=Lucille 7.102
TTITLE14=Lotta Lovin' 7.103
TTITLE15=Across The Universe 7.104
TTITLE16=Gone, Gone, Gone 7.105
TTITLE17=Dig A Pony 7.106
TTITLE18=One After 909 7.107
TTITLE19=One After 909 7.108
TTITLE20=One After 909 7.109
TTITLE21=One After 909 7.110
TTITLE22=One After 909 7.111
TTITLE23=What'd I Say 7.112
TTITLE24=One After 909 7.113
TTITLE25=Improvisation 7.114
TTITLE26=Don't Let Me Down 7.115
TTITLE27=Don't Let Me Down 7.116
TTITLE28=Don't Let Me Down 7.117
TTITLE29=Don't Let Me Down 7.118
TTITLE30=Don't Let Me Down 7.119
TTITLE31=Don't Let Me Down 7.120
TTITLE32=Don't Let Me Down 7.121
TTITLE33=Don't Let Me Down 7.122
TTITLE34=Devil In Her Heart 7.123
TTITLE35=Devil In Her Heart 7.124
TTITLE36=Don't Let Me Down 7.125
TTITLE37=Don't Let Me Down 7.126
TTITLE38=Thirty Days 7.127
TTITLE39=Revolution 7.128
TTITLE40=A Case Of The Blues 7.129
TTITLE41=Be Bop A Lula 7.130
TTITLE42=Lotta Lovin' - Somethin' Else 7.131
TTITLE43=Improvisation 7.132
TTITLE44=Improvisation 7.133
TTITLE45=Improvisation 7.134
TTITLE46=Across The Universe 7.135
TTITLE47=School Day 7.136
TTITLE48=F.B.I. 7.137
TTITLE49=She Came In Through The Bathroom Window 7.138
TTITLE50=She Came In Through The Bathroom Window 7.139
EXTD=
EXTT0=
EXTT1=
EXTT2=
EXTT3=
EXTT4=
EXTT5=
EXTT6=
EXTT7=
EXTT8=
EXTT9=
EXTT10=
EXTT11=
EXTT12=
EXTT13=
EXTT14=
EXTT15=
EXTT16=
EXTT17=
EXTT18=
EXTT19=
EXTT20=
EXTT21=
EXTT22=
EXTT23=
EXTT24=
EXTT25=
EXTT26=
EXTT27=
EXTT28=
EXTT29=
EXTT30=
EXTT31=
EXTT32=
EXTT33=
EXTT34=
EXTT35=
EXTT36=
EXTT37=
EXTT38=
EXTT39=
EXTT40=
EXTT41=
EXTT42=
EXTT43=
EXTT44=
EXTT45=
EXTT46=
EXTT47=
EXTT48=
EXTT49=
EXTT50=
PLAYORDER=
